<?xml version="1.0" encoding="utf-8"?>
<!-- Generator: Adobe Illustrator 23.0.5, SVG Export Plug-In . SVG Version: 6.00 Build 0)  -->
<svg version="1.1" id="Layer_1" xmlns="http://www.w3.org/2000/svg" xmlns:xlink="http://www.w3.org/1999/xlink" x="0px" y="0px"
	 viewBox="0 0 595.28 841.89" style="enable-background:new 0 0 595.28 841.89;" xml:space="preserve">
<style type="text/css">
	.st0{fill:none;stroke:#000000;stroke-width:20;stroke-miterlimit:10;}
</style>
<path class="st0" d="M155,260c23.66-0.1,47.33-0.2,70.99-0.3c55-0.23,110.01-0.47,165.01-0.7c16.67,16.33,33.33,32.67,50,49
	c0.67,78,1.33,156,2,234c-5,5-10,10-15,15c-74.33,0-148.67,0-223,0c-16,0-32,0-48,0c-3.52-3.76-7.05-7.52-10.57-11.28
	c-2.64-2.82-4.41-4.7-4.43-4.72c-4.4-4.7-5.91-72.34-1-262c0.47-2.19,1.33-5.01,3-8C147.45,264.84,152.38,261.5,155,260z"/>
<path class="st0" d="M224,270c-0.33,27-0.67,54-1,81c5,6,10,12,15,18c35.67,0.33,71.33,0.67,107,1c8.33-7.33,16.67-14.67,25-22
	c0.67-26.67,1.33-53.33,2-80"/>
<path class="st0" d="M223,351"/>
<path class="st0" d="M316,291c0.33,11,0.67,22,1,33"/>
<path class="st0" d="M208,548c-0.33-33.67-0.67-67.33-1-101c4.67-5.67,9.33-11.33,14-17c43.33,0,86.67,0,130,0
	c10,5.33,20,10.67,30,16c0,34,0,68,0,102"/>
</svg>
