<?xml version="1.0" encoding="utf-8"?>
<!-- Generator: Adobe Illustrator 23.0.5, SVG Export Plug-In . SVG Version: 6.00 Build 0)  -->
<svg version="1.1" id="Layer_1" xmlns="http://www.w3.org/2000/svg" xmlns:xlink="http://www.w3.org/1999/xlink" x="0px" y="0px"
	 viewBox="0 0 1366 768" style="enable-background:new 0 0 1366 768;" xml:space="preserve">
<style type="text/css">
	.st0{fill:#8AE6FF;}
	.st1{fill:#FFFFFF;}
</style>
<g>
	<rect class="st0" width="1366" height="768"/>
</g>
<path class="st1" d="M142.77,86.14c7.54-6.59,6.85-12.28,13.4-14.89c6.14-2.44,8.98,1.68,22.33,2.98c12.59,1.22,14.98-1.96,20.84,0
	c12.56,4.21,7.98,26.9,17.86,29.77c5.59,1.63,8.11-4.67,14.89-2.98c10.06,2.51,16.38,19.35,16.38,19.35c0,0,29.19-4.06,37.22,7.44
	c4.11,5.89,2.2,15.21-1.49,20.84c-6.09,9.29-18.35,10.56-31.26,11.91c-13.03,1.36-28.28,0-28.28,0c-0.72,2.35-2.18,6.01-5.21,9.68
	c-4.03,4.87-8.71,7.18-11.16,8.19c-22.06-5.86-28.45-8.19-28.28-8.93c0.21-0.97,11.76-0.21,11.91,1.49
	c0.18,2.03-15.54,8.86-29.77,4.47c-10.75-3.32-11.99-10.36-20.84-10.42c-9.37-0.07-12.45,7.79-19.35,5.95
	c-6.51-1.73-5.48-9.15-13.4-14.89c-9.32-6.75-16.92-0.52-23.82-5.95c-10.69-8.43-11.37-33.81,0-44.66
	c3.57-3.41,4.97-2.18,35.73-10.42C134.5,91.3,138.46,89.91,142.77,86.14z"/>
<path class="st1" d="M131.24,423.01c-14.1,16.01-23.23,13.42-28.45,24.18c-4.78,9.86-3.01,24.15,4.27,29.87
	c5.73,4.5,10.47,0.25,25.6,2.84c14.17,2.43,13.56,6.77,25.6,8.53c16.05,2.35,18.57-5.14,34.14-2.84
	c14.56,2.14,15.59,9.17,27.03,8.53c12.39-0.69,13.35-9.06,25.6-9.96c12.24-0.9,14.35,7.23,29.87,8.53
	c2.57,0.22,21.35,1.8,28.45-8.53c1.72-2.51,1.87-4.42,1.42-25.6c-0.41-19.74-0.59-20.82-1.42-22.76c-3.1-7.25-7.09-7.22-24.18-21.34
	c-14.05-11.6-13.83-13.66-19.91-15.65c-9.38-3.07-11.62,1.26-25.6-1.42c-11.79-2.26-13.83-6.04-19.91-4.27
	c-8.19,2.38-8.11,10.28-15.65,11.38c-6.39,0.93-8.54-4.44-17.07-4.27c-4.66,0.09-5.14,1.72-12.8,4.27
	c-13.64,4.54-17.93,1.31-25.6,5.69C137.43,413.17,137.82,415.54,131.24,423.01z"/>
<path class="st1" d="M1059.45,326.34c-12.83,12.12-28.64,4.18-34.03,13.61c-5.7,9.97,4.72,31.55,19.06,36.75
	c8.91,3.23,13.42-2.01,24.5,2.72c9.02,3.86,10.4,9.2,17.69,9.53c7.29,0.32,8.37-4.91,16.33-5.44c8.75-0.59,10.07,5.54,21.78,8.17
	c2.48,0.56,14.74,3.04,25.86-2.72c5.88-3.05,13.61-9.53,13.61-9.53c17-1.39,19.06-2.72,19.06-2.72c4.18-2.72,7.94-10.25,4.08-32.67
	c-1.45-7.1-4.82-18.73-13.61-29.94c-14.4-18.36-40.78-32.32-53.08-24.5c-5.56,3.54-3.44,8.47-9.53,12.25
	c-11.68,7.26-25-7.44-36.75-1.36C1065.1,305.3,1070.08,316.3,1059.45,326.34z"/>
<path class="st1" d="M313.06,306.49c-18.59,7.81-28.14,5.84-32.63,13.81c-5.41,9.59,0.23,26.97,10.04,31.38
	c9.89,4.44,20.1-6.06,28.87,0c5.06,3.49,2.64,7.66,7.53,11.3c9.6,7.14,23.41-5.52,35.14,1.26c5.58,3.22,3.73,6.82,8.79,11.3
	c12.95,11.46,31.2-6.74,66.52-5.02c19.23,0.94,33.06,7.27,41.42-1.26c3.93-4,3.6-8.18,8.79-11.3c9.2-5.53,17.87,3.01,23.85-1.26
	c8.76-6.25,4.64-34.92-8.79-41.42c-4.95-2.4-7.1,0.2-12.55-2.51c-10.82-5.36-7.75-18.21-16.32-22.59c-9.76-5-19.8,8.57-31.38,3.77
	c-7.49-3.11-6.14-9.97-12.55-16.32c-16.63-16.46-60.59-4.81-87.86,11.3C329.66,296.16,326.98,300.64,313.06,306.49z"/>
<path class="st1" d="M1160.01,94.25c23.33-7.39,36.39-11.53,52.53-9c17.38,2.72,15.55,9.6,37.52,13.51
	c15.88,2.82,21.57,0.08,30.02,6c10.07,7.07,8.56,15.62,18.01,19.51c9.74,4.01,15.21-3.47,24.01,0
	c12.15,4.78,20.15,26.28,13.51,36.02c-7.46,10.95-28.4-0.29-42.02,13.51c-8.35,8.46-4.14,16.4-12.01,21.01
	c-11.49,6.74-23.23-8.57-40.52-3c-10.64,3.43-9.18,10.19-21.01,15.01c-10.99,4.47-15.33-0.11-39.02-1.5
	c-27.82-1.63-34.09,3.96-45.02-3c-9.27-5.9-7.23-11.49-18.01-18.01c-13-7.87-20.11-2.24-28.52-9c-11.95-9.6-13.79-33.96-4.5-42.02
	c6.92-6.01,14.7,1.66,27.01-4.5c10.4-5.2,9.68-13.09,21.01-22.51C1139.56,100.8,1146.46,98.54,1160.01,94.25z"/>
<path class="st1" d="M654.83,241.91c7.44-6.5,6.75-12.11,13.21-14.68c6.06-2.41,8.85,1.66,22.01,2.94c12.41,1.21,14.77-1.94,20.55,0
	c12.39,4.15,7.86,26.52,17.61,29.35c5.51,1.6,7.99-4.61,14.68-2.94c9.92,2.48,16.14,19.08,16.14,19.08c0,0,28.78-4,36.69,7.34
	c4.05,5.81,2.17,14.99-1.47,20.55c-6,9.15-18.09,10.41-30.82,11.74c-12.84,1.34-27.88,0-27.88,0c-0.71,2.31-2.15,5.93-5.14,9.54
	c-3.97,4.8-8.58,7.08-11.01,8.07c-21.74-5.77-28.04-8.07-27.88-8.81c0.21-0.95,11.59-0.21,11.74,1.47c0.17,2-15.32,8.73-29.35,4.4
	c-10.6-3.27-11.82-10.21-20.55-10.27c-9.24-0.07-12.27,7.68-19.08,5.87c-6.41-1.7-5.4-9.02-13.21-14.68
	c-9.19-6.65-16.68-0.51-23.48-5.87c-10.54-8.31-11.21-33.33,0-44.03c3.52-3.36,4.9-2.15,35.22-10.27
	C646.68,247.01,650.58,245.63,654.83,241.91z"/>
<path class="st1" d="M392.88,126.68c-13.48,15.31-22.21,12.83-27.2,23.12c-4.57,9.42-2.88,23.09,4.08,28.56
	c5.47,4.3,10.01,0.24,24.48,2.72c13.55,2.33,12.97,6.47,24.48,8.16c15.34,2.25,17.76-4.91,32.64-2.72
	c13.92,2.05,14.91,8.77,25.84,8.16c11.84-0.66,12.76-8.66,24.48-9.52c11.71-0.86,13.72,6.91,28.56,8.16
	c2.46,0.21,20.42,1.72,27.2-8.16c1.65-2.4,1.78-4.23,1.36-24.48c-0.39-18.87-0.57-19.91-1.36-21.76c-2.97-6.93-6.78-6.91-23.12-20.4
	c-13.44-11.09-13.22-13.06-19.04-14.96c-8.97-2.93-11.11,1.21-24.48-1.36c-11.27-2.16-13.23-5.77-19.04-4.08
	c-7.83,2.28-7.76,9.83-14.96,10.88c-6.11,0.89-8.16-4.24-16.32-4.08c-4.46,0.09-4.91,1.64-12.24,4.08
	c-13.04,4.34-17.14,1.25-24.48,5.44C398.79,117.27,399.16,119.54,392.88,126.68z"/>
<path class="st1" d="M775.17,110.23c-13.45,12.71-30.03,4.38-35.68,14.27c-5.98,10.46,4.95,33.08,19.98,38.53
	c9.34,3.39,14.07-2.11,25.69,2.85c9.46,4.04,10.91,9.65,18.55,9.99c7.64,0.34,8.77-5.14,17.12-5.71c9.17-0.62,10.56,5.81,22.83,8.56
	c2.61,0.58,15.45,3.19,27.11-2.85c6.17-3.2,14.27-9.99,14.27-9.99c17.82-1.45,19.98-2.85,19.98-2.85
	c4.38-2.85,8.32-10.74,4.28-34.25c-1.52-7.44-5.05-19.64-14.27-31.39c-15.1-19.25-42.76-33.89-55.65-25.69
	c-5.83,3.71-3.61,8.88-9.99,12.84c-12.24,7.61-26.21-7.8-38.53-1.43C781.1,88.17,786.32,99.7,775.17,110.23z"/>
<path class="st1" d="M790.11,431.66c-19.69,8.27-29.8,6.19-34.56,14.62c-5.73,10.15,0.24,28.56,10.63,33.23
	c10.47,4.7,21.28-6.42,30.57,0c5.35,3.7,2.79,8.11,7.97,11.96c10.16,7.56,24.79-5.85,37.22,1.33c5.91,3.41,3.95,7.23,9.3,11.96
	c13.71,12.13,33.04-7.14,70.44-5.32c20.36,0.99,35.01,7.69,43.86-1.33c4.16-4.24,3.81-8.66,9.3-11.96
	c9.74-5.86,18.92,3.18,25.25-1.33c9.28-6.61,4.91-36.98-9.3-43.86c-5.24-2.54-7.51,0.21-13.29-2.66
	c-11.45-5.68-8.2-19.28-17.28-23.92c-10.34-5.29-20.97,9.07-33.23,3.99c-7.93-3.29-6.5-10.56-13.29-17.28
	c-17.61-17.43-64.16-5.09-93.04,11.96C807.68,420.73,804.85,425.47,790.11,431.66z"/>
<path class="st1" d="M497.13,486.42c21.35-6.77,33.3-10.55,48.07-8.24c15.9,2.49,14.23,8.78,34.33,12.36
	c14.53,2.58,19.74,0.07,27.47,5.49c9.22,6.47,7.83,14.29,16.48,17.85c8.91,3.67,13.92-3.17,21.97,0
	c11.11,4.38,18.43,24.04,12.36,32.96c-6.83,10.02-25.99-0.27-38.45,12.36c-7.64,7.74-3.79,15-10.99,19.23
	c-10.51,6.17-21.26-7.84-37.08-2.75c-9.74,3.14-8.4,9.33-19.23,13.73c-10.05,4.09-14.02-0.1-35.71-1.37
	c-25.46-1.5-31.19,3.62-41.2-2.75c-8.48-5.4-6.62-10.51-16.48-16.48c-11.9-7.2-18.4-2.05-26.09-8.24
	c-10.93-8.79-12.61-31.08-4.12-38.45c6.33-5.5,13.45,1.52,24.72-4.12c9.51-4.76,8.86-11.98,19.23-20.6
	C478.42,492.42,484.74,490.35,497.13,486.42z"/>
<path class="st1" d="M1258,192"/>
</svg>
