<?xml version="1.0" encoding="utf-8"?>
<!-- Generator: Adobe Illustrator 23.0.5, SVG Export Plug-In . SVG Version: 6.00 Build 0)  -->
<svg version="1.1" id="Layer_1" xmlns="http://www.w3.org/2000/svg" xmlns:xlink="http://www.w3.org/1999/xlink" x="0px" y="0px"
	 viewBox="0 0 1000 1000" style="enable-background:new 0 0 1000 1000;" xml:space="preserve">
<style type="text/css">
	.st0{fill:#FBB040;}
	.st1{fill:#F26522;}
	.st2{fill:#231F20;stroke:#231F20;stroke-miterlimit:10;}
</style>
<path class="st0" d="M332.81,435.29c-0.32,1.13,1.3,6.43,4.55,17.05c3.49,11.43,4.34,12.49,5.68,13.64
	c3.56,3.06,6.8,2.12,17.05,4.55c6.89,1.63,7.43,3.45,11.36,3.41c3.86-0.04,15.12-3.17,11.36-2.27c7.46,4.45,10.2,9.21,11.36,12.5
	c0.76,2.15,0.42,2.48,2.05,13.71c0.49,3.38,0.92,6.77,1.36,10.15c0,0,1.59,12.18,5.46,27.35c4.32,16.93,10.13,19.53,19.54,41.97
	c9.48,22.61,15.86,37.28,9.09,47.73c-4.77,7.36-13.55,8.74-18.18,20.45c-1.17,2.95-3.67,9.27-1.14,13.64
	c3.78,6.53,18.06,7.39,35.23,1.14c0.53-20.8,6.7-32.69,12.5-39.77c4.64-5.67,10.36-9.9,11.36-18.18c1.17-9.64-5.05-16.56-2.27-19.32
	c2.3-2.29,7.24,1.79,14.77,3.41c11.69,2.51,25.98-3.25,54.55-14.77c3.2-1.29,8.49-3.47,11.36-1.14c3.25,2.63-0.15,8.09,1.14,13.64
	c3.28,14.11,32.42,9.18,46.59,28.41c6.4,8.68,9.29,21.66,4.55,27.27c-3.17,3.75-8.1,2.23-11.36,6.82
	c-3.5,4.92-2.62,13.39,1.14,17.05c5.52,5.38,19.9,2.95,34.09-9.09c0.82-20.6,2.75-35.82,4.55-46.59c0.95-5.69,2.62-14.67-2.27-19.32
	c-4.47-4.25-10.11-0.78-13.64-4.55c-4.95-5.28,3.36-15.06,4.55-34.09c0.86-13.7-2.52-23.52-1.14-23.86c0.45-0.11,1.05,2.6,2.49,6.55
	c2.06,5.62,5.21,14.18,12.28,20.73c4.77,4.42,9.9,6.6,13.11,7.97c4.54,1.93,9.54,3.1,9.54,3.1c0.02,0,0.06,0.01,0.1,0.02
	c3.61,0.84,7.84,1.45,14.77,1.62c4.48,0.11,6.72,0.16,6.8-0.21c0.28-1.21-10.84-3.4-19.66-8.11c-13.02-6.96-16.92-17.25-25.8-30.52
	c-8.36-12.5-19.46-29.1-36.36-38.64c-20.98-11.84-45.53-9.77-67.05-7.95c-16.77,1.41-16.47,3.7-28.41,3.41
	c-5.53-0.13-45.35-1.59-54.55-22.73c-5.59-12.86,6.11-19.31,1.14-37.5c-5.47-20.01-24.35-29.45-27.19-30.82
	c-1.66-0.8-22.85-10.72-33.03-2.14c-2.46,2.08-2.07,3.38-6.82,10.23c0,0-5.78,8.35-12.5,14.77
	C351.8,430.41,335.51,425.89,332.81,435.29z"/>
<path class="st1" d="M394.27,414.11c-2.29,4.59,8.27,9.08,11.36,21.59c2.53,10.23-1.72,20.08-10.23,39.77
	c-7.15,16.56-10.73,19.72-9.09,26.14c2.42,9.5,13.58,15.63,22.73,17.05c16.7,2.58,28.54-10.24,29.55-11.36
	c4.6-25.68,1.71-45.76-1.14-57.95c-3.27-14-6.92-28.67-19.32-35.23C408.99,409.27,396.52,409.6,394.27,414.11z"/>
<circle class="st2" cx="377.55" cy="428.32" r="3.5"/>
<circle class="st2" cx="340.77" cy="436.82" r="7"/>
</svg>
