<?xml version="1.0" standalone="no"?>
<!DOCTYPE svg PUBLIC "-//W3C//DTD SVG 20010904//EN"
 "http://www.w3.org/TR/2001/REC-SVG-20010904/DTD/svg10.dtd">
<svg version="1.0" xmlns="http://www.w3.org/2000/svg"
 width="1280.000000pt" height="1810.000000pt" viewBox="0 0 1280.000000 1810.000000"
 preserveAspectRatio="xMidYMid meet">
<metadata>
Created by potrace 1.16, written by Peter Selinger 2001-2019
</metadata>
<g transform="translate(0.000000,1810.000000) scale(0.100000,-0.100000)"
fill="#000000" stroke="none">
<path d="M6079 12669 c-1105 -57 -2145 -527 -2925 -1321 -713 -726 -1138
-1633 -1250 -2668 -23 -213 -23 -659 0 -870 64 -592 217 -1107 475 -1605 572
-1103 1567 -1908 2766 -2239 548 -151 1165 -194 1740 -120 702 89 1411 364
1979 766 299 211 666 551 880 814 554 683 877 1452 983 2344 22 181 25 724 5
900 -39 352 -99 639 -198 943 -371 1142 -1182 2078 -2259 2607 -553 271 -1117
417 -1746 450 -211 11 -233 11 -450 -1z m701 -44 c1686 -193 3073 -1268 3666
-2843 121 -319 200 -647 251 -1037 26 -201 26 -795 0 -1005 -109 -871 -442
-1650 -990 -2314 -211 -256 -567 -585 -848 -783 -648 -457 -1405 -730 -2202
-794 -196 -15 -678 -7 -847 15 -415 55 -766 144 -1133 288 -174 69 -519 243
-683 345 -535 335 -990 773 -1331 1283 -405 605 -642 1253 -729 1995 -22 186
-26 708 -6 885 63 568 197 1040 428 1511 223 454 469 802 818 1157 358 365
721 628 1177 856 520 260 1055 407 1654 456 155 12 614 4 775 -15z"/>
<path d="M9124 9341 c-110 -67 -106 -221 6 -279 140 -72 286 81 209 218 -41
73 -147 103 -215 61z"/>
<path d="M6326 9188 c-127 -75 -86 -275 62 -295 83 -11 168 57 179 145 5 45
-28 116 -69 146 -42 30 -124 32 -172 4z"/>
<path d="M9444 6443 c-66 -106 -191 -261 -290 -358 -340 -338 -740 -524 -1210
-566 -445 -38 -974 120 -1381 413 -45 32 -53 35 -64 21 -11 -12 -9 -18 11 -34
76 -60 213 -143 347 -210 589 -296 1214 -313 1770 -49 335 159 654 443 846
752 51 81 55 93 33 101 -10 4 -30 -19 -62 -70z"/>
</g>
</svg>
