<?xml version="1.0" encoding="utf-8"?>
<!-- Generator: Adobe Illustrator 23.0.5, SVG Export Plug-In . SVG Version: 6.00 Build 0)  -->
<svg version="1.1" id="Layer_1" xmlns="http://www.w3.org/2000/svg" xmlns:xlink="http://www.w3.org/1999/xlink" x="0px" y="0px"
	 viewBox="0 0 1000 1000" style="enable-background:new 0 0 1000 1000;" xml:space="preserve">
<style type="text/css">
	.st0{fill:#C49A6C;}
	.st1{fill:#231F20;}
	.st2{fill:#00AEEF;}
	.st3{fill:#603913;}
	.st4{fill:none;stroke:#231F20;stroke-miterlimit:10;}
</style>
<g>
	<g>
		<path class="st0" d="M477.15,257.95c-9.07-10.96-34.97-2.09-45,1.34c-27.79,9.51-44.27,27.79-47.73,31.82
			c-7.17,8.35-13.07,19.55-24.88,41.95c-3.49,6.62-8.81,15.81-19.44,34.19c-5.7,9.85-7.88,13.33-12.5,17.05
			c-9.21,7.4-15.06,4.87-21.59,12.5c-0.9,1.05-7.75,9.28-5.68,18.18c0.91,3.9,3.27,6.44,7.95,11.36c5.44,5.72,8.58,9.01,13.64,11.36
			c14.25,6.63,29.19-0.93,34.09-3.41c7.39-3.74,8.72-6.89,9.09-7.95c1.62-4.6-1.68-7.8-3.41-14.77c-2.35-9.47,0.07-17.66,1.26-21.69
			c3.17-10.75,10.26-17.32,14.77-21.59c37.43-35.47,31.98-43.65,53.41-54.55c19.56-9.95,28.16-5.2,38.51-16.95
			C479.44,285.68,484.55,266.89,477.15,257.95z"/>
	</g>
</g>
<g>
	<g>
		<path class="st0" d="M620.3,407.73c0.78-2.38,4.67-1.16,10.23-5.68c4.54-3.7,6.33-8.55,9.09-13.64
			c7.91-14.56,8.7-15.57,10.23-15.91c4.27-0.94,7.84,4.78,17.87,15.91c2.71,3.01,12.37,13.67,23.04,22.73
			c4.53,3.85,13.96,11.4,27.27,18.18c7.89,4.02,12.18,7.62,18.18,6.82c3.63-0.48,6.03-2.11,10.84-5.36
			c5.58-3.78,11.73-7.94,15.91-15.91c1.56-2.97,5.86-11.18,2.8-18.5c-0.27-0.66-0.63-1.26-1.34-2.49
			c-4.36-7.52-8.01-9.26-9.62-12.24c-3.16-5.86,1.48-16.71,8.3-22.19c13.38-10.76,34.14-0.02,36.36,1.14
			c9.64,4.99,14.64,12.31,17.05,15.91c3.88,5.82,8.47,12.71,6.53,20.54c-0.15,0.59-2.17,8.28-8.41,10.68
			c-5.76,2.21-8.84-2.68-13.64-1.14c-7.71,2.48-6.41,15.33-14.77,32.95c-2.68,5.65-6.73,14.18-14.77,21.59
			c-15.94,14.68-36.5,14.79-38.64,14.77c-13.16-0.12-22.41-5.39-40.91-15.91c-13.16-7.49-12.64-9.05-32.95-22.73
			C635.1,421.22,618.65,412.77,620.3,407.73z"/>
	</g>
</g>
<g>
	<g>
		<path class="st1" d="M527.05,165.29c1.9,0.33,12.74-19.37,14.09-33.21c0.09-0.91,0.33-3.76,1.82-4.29
			c2.99-1.06,6.56,8.77,17.05,14.77c4.35,2.49,8.17,4.68,11.36,3.41c7.82-3.11,0.16-22.36,9.09-38.64
			c7.95-14.49,25-19.24,37.5-22.73c26.22-7.31,51.05,0.02,53.56,1.94c0.11,0.08,0.52,0.42,0.98,0.33c0,0,1.44-0.29,2.27-11.36
			c0,0,9.78-0.28,14.77-4.55c4.95-4.23,4.78-12.05,4.55-22.73c-0.18-8.06-0.27-12.09-2.27-14.77c-5.22-6.98-16.72-4.27-34.09-4.55
			c-21.78-0.34-23.15-4.91-40.91-5.68c-18.97-0.82-39.77,3.42-52.27,10.23C515.69,60.09,522.89,164.56,527.05,165.29z"/>
	</g>
</g>
<g>
	<g>
		<path class="st0" d="M530.34,160.5c10.29,14.37,15.23,21.25,15.23,21.25s6.42,7.95,10.7,13.99c7.93,11.18,12.35,16.89,12.35,24.82
			c0,0-0.12,1.26-3.7,14.89c-1.71,2.53-4.76,7.82-4.94,14.89c-0.29,11.56,7.18,23.49,18.52,27.3c8.86,2.98,19.66,1.31,25.93-4.96
			c3.56-3.57,4.94-7.88,6.88-13.99c3.3-10.37,1.01-12.76,4.23-18.28c4.82-8.26,14.55-10.83,16.05-11.17c7.57-1.7,9.59,1.19,21.7,0.9
			c9.02-0.21,13.94-0.33,17.29-3.72c1.15-1.16,3.73-4.35,2.47-23.58c-1-15.29-3.3-23.31,0.52-25.73c2.14-1.36,4.52-1.55,10.52-3
			c1.24-0.3,2.32-0.86,3.06-1.96c2.93-4.37-3.62-10.16-6.17-21.1c-3.05-13.05,3.21-17.96,3.7-34.75c0.1-3.26-0.43-15.57-4.94-28.55
			c-1.02-2.93-4.94-13.65-4.94-13.65c0,0-25.15-7.34-48.16-3.72c-6.82,1.07-33.77,6.3-44.45,26.06c-1.48,2.73-3.45,8.86-7.41,21.1
			c-5.92,18.34-6.95,25.31-11.11,26.06c-2.74,0.5-7.21-3.8-16.05-12.41c-7.01-6.83-8.11-8.94-9.88-8.69
			C534.82,122.94,531.38,129.6,530.34,160.5z"/>
	</g>
</g>
<g>
	<g>
		<path class="st2" d="M560.49,248.71c-6.97-9.26-19.62-2.42-50.35-5.42c-19.61-1.91-45.28-7.47-50-1.14
			c-2.14,2.87-0.69,4.92,0,15.91c1.07,17.16-1.99,19.6-2.27,43.18c-0.3,25.52,3.23,27.81,4.55,28.41c3.65,1.65,6.65-2.41,19.32-6.82
			c8.1-2.81,16.26-5.43,20.45-3.41c17.87,8.61-15.44,113.09-21.05,130.66c-15.49,48.58-23.24,72.87-30.04,80.24
			c-0.34,0.37-1.4,1.49-1.18,2.74c1.34,7.72,49.11,6.09,100,2.27c10.49-98.81,23.26-128.77,35.23-129.55
			c7.94-0.52,13.71,11.94,26.3,11.48c13.68-0.5,24.7-15.86,32.79-31.93c4.39-5.01,8.78-10.02,13.18-15.03
			c-14.92-17.31-15.45-17.93-15.45-17.93c-21.96-26.04-23.54-87.33-33.12-86.55c-5.83,0.47-6.93,6.27-17.31,8.54
			c-1.45,0.32-15.62,3.35-23.56-4.38C560.88,263.1,565.83,255.81,560.49,248.71z"/>
	</g>
</g>
<g>
	<g>
		<path class="st1" d="M449.78,532.5c33.71-0.76,67.42-1.52,101.14-2.27c67.42,119.32,134.85,238.64,202.27,357.95
			c0.59,5.2-0.11,9.34-1.14,12.5c-5.32,16.4-26.19,27.26-52.27,28.41c-54.92-99.24-109.85-198.48-164.77-297.73
			c-6.06-6.82-12.12-13.64-18.18-20.45c-14.96,15.92-25.01,31.07-31.82,43.18c-10.56,18.78-9.47,25.92-23.86,56.82
			c-15.43,33.12-23.84,41.62-32.28,47.14c-10.99,7.19-22.2,9.43-29.55,10.23c-52.88,7.01-105.75,14.02-158.63,21.04
			c-3.29-0.15-11.47-0.96-19.32-6.82c-0.98-0.73-12.24-9.41-13.64-23.86c-1.4-14.49,7.64-29.23,22.73-36.36
			c5.53,2.84,11.06,5.67,16.58,8.51c10.83,1.33,22.62,2.19,35.23,2.27c35.1,0.22,65.23-5.67,88.64-12.5
			c13.41-11.17,26.82-22.34,40.23-33.51C424.02,635.53,436.9,584.01,449.78,532.5z"/>
	</g>
</g>
<g>
	<g>
		<path class="st3" d="M701.21,923.72c3.55-2.15,5.04-0.04,14.77-1.14c5.07-0.57,14.27-1.6,21.59-7.95
			c4.84-4.2,7.08-9.18,9.09-13.64c2.49-5.54,4.01-13.8,4.01-13.8l0,0c14.55,5.68,16.82,6.09,16.82,6.09
			c5.01,0.92,10.41-0.19,21.21-2.39c9.86-2.02,10.97-2.96,20.45-4.67c9.93-1.79,13.79-1.62,17.05-1.14
			c4.59,0.69,10.08,1.51,13.64,5.68c5.6,6.57,3.45,18-1.14,25c-4.93,7.52-12.92,10.29-15.91,11.36c0,0-45.77,19.24-82.95,46.59
			c0,0-0.01,0.01-0.01,0.01c-2.71,1.28-10.7,4.63-20.45,2.39c-14.03-3.21-20.25-15.35-21.59-18.18
			C692.05,945.73,693.16,928.61,701.21,923.72z"/>
	</g>
</g>
<g>
	<g>
		<path class="st3" d="M234.15,727.33c0.09,4.15-2.48,4.39-6.4,13.36c-2.04,4.67-5.75,13.16-3.91,22.68
			c1.22,6.29,4.41,10.72,7.26,14.69c0,0,2.07,2.64,9.95,10.37c0,0-4.56,7.97-7.23,12.19c-7.78,12.31-10.9,10.33-14.99,18.9
			c-3.09,6.47-1.3,6.48-6.19,20.05c-3.42,9.49-5.49,12.75-7.54,15.33c-2.89,3.63-6.35,7.98-11.74,8.97
			c-8.49,1.56-17.32-6.01-21.08-13.48c-4.05-8.03-2.45-16.34-1.89-19.46c0,0,6.22-49.26,1.13-95.13c0,0,0-0.01,0-0.01
			c0.24-2.99,1.34-11.58,8.15-18.91c9.8-10.54,23.42-9.87,26.54-9.61C219.67,708.38,233.94,717.9,234.15,727.33z"/>
	</g>
</g>
<g>
	<g>
		<circle class="st1" cx="631.32" cy="128.87" r="7"/>
	</g>
	<g>
		<circle class="st4" cx="631.32" cy="128.87" r="7"/>
	</g>
</g>
<g>
	<g>
		<circle class="st1" cx="671.09" cy="128.87" r="7"/>
	</g>
	<g>
		<circle class="st4" cx="671.09" cy="128.87" r="7"/>
	</g>
</g>
<g>
	<g>
		<g>
			<path class="st1" d="M624.02,210.74c5.54,4.12,12.16,6.65,19.1,6.79c6.92,0.14,13.72-2.09,19.56-5.75
				c3.83-2.4,7.26-5.39,10.32-8.7c1.09-1.18-0.67-2.95-1.77-1.77c-4.86,5.27-10.75,9.76-17.61,12.06c-6,2.01-12.45,2.23-18.51,0.34
				c-3.56-1.11-6.84-2.91-9.82-5.13C623.99,207.62,622.75,209.79,624.02,210.74L624.02,210.74z"/>
		</g>
	</g>
</g>
<g>
	<g>
		<path class="st2" d="M562.78,449.95"/>
	</g>
</g>
<g>
	<g>
		<g>
			<path class="st1" d="M512.19,373.77c-3.55,20-7.8,39.87-12.76,59.57c-1.41,5.62-2.89,11.22-4.41,16.81
				c-0.85,3.11,3.97,4.43,4.82,1.33c5.35-19.6,10.02-39.38,13.97-59.3c1.13-5.68,2.19-11.37,3.21-17.08
				c0.24-1.33-0.36-2.69-1.75-3.08C514.05,371.69,512.42,372.43,512.19,373.77L512.19,373.77z"/>
		</g>
	</g>
</g>
<g>
	<g>
		<g>
			<path class="st1" d="M513.82,378.2c8.31-1.02,16.65,0.78,23.74,5.25c2.73,1.72,5.24-2.6,2.52-4.32
				c-7.75-4.89-17.16-7.05-26.26-5.93c-1.34,0.16-2.5,1.03-2.5,2.5C511.32,376.93,512.47,378.37,513.82,378.2L513.82,378.2z"/>
		</g>
	</g>
</g>
<g>
	<g>
		<g>
			<path class="st1" d="M510.4,416.76c6.32-0.33,12.58,0.39,18.66,2.17c3.09,0.91,4.41-3.92,1.33-4.82
				c-6.47-1.9-13.26-2.7-19.99-2.35c-1.35,0.07-2.5,1.1-2.5,2.5C507.9,415.56,509.05,416.84,510.4,416.76L510.4,416.76z"/>
		</g>
	</g>
</g>
<g>
	<g>
		<g>
			<path class="st1" d="M497.72,456.68c7.58,0,15.16,0,22.75,0c1.08,0,2.17,0,3.25,0c3.22,0,3.22-5,0-5c-7.58,0-15.16,0-22.75,0
				c-1.08,0-2.17,0-3.25,0C494.5,451.68,494.5,456.68,497.72,456.68L497.72,456.68z"/>
		</g>
	</g>
</g>
<g>
	<g>
		<g>
			<path class="st1" d="M550.17,387.32c4.22-0.26,8.44-0.32,12.67-0.16c3.47,0.13,7.19,0.11,10.53,1.17
				c7.49,2.37,1.91,10.92-0.85,14.88c-9.75,14.03-19.5,28.06-29.26,42.08c-2.2,3.16-5.01,8.26-0.63,11.07
				c1.77,1.13,4.12,1.13,6.14,1.4c2.37,0.31,4.73,0.62,7.1,0.93c1.34,0.18,2.5-1.27,2.5-2.5c0-1.5-1.15-2.32-2.5-2.5
				c-2.05-0.27-4.1-0.54-6.15-0.81c-0.95-0.12-1.89-0.24-2.84-0.37c-0.36-0.05-1.45-0.07-1.62-0.4c-0.31-0.59,0.98-2.37,1.32-2.86
				c1.16-1.72,2.37-3.41,3.55-5.11c4.92-7.08,9.85-14.16,14.77-21.25c2.41-3.47,4.83-6.95,7.24-10.42c2.32-3.34,4.83-6.61,6.91-10.1
				c1.76-2.96,3.36-6.51,3.1-10.04c-0.26-3.5-2.31-6.58-5.52-8.06c-3.74-1.72-8.05-1.83-12.09-2.04c-4.79-0.25-9.59-0.21-14.37,0.08
				C546.97,382.51,546.95,387.52,550.17,387.32L550.17,387.32z"/>
		</g>
	</g>
</g>
<g>
	<g>
		<g>
			<path class="st1" d="M549.72,424.68c4.67,0,9.35,0,14.02,0c0.66,0,1.32,0,1.98,0c1.31,0,2.56-1.15,2.5-2.5
				c-0.06-1.35-1.1-2.5-2.5-2.5c-4.67,0-9.35,0-14.02,0c-0.66,0-1.32,0-1.98,0c-1.31,0-2.56,1.15-2.5,2.5
				C547.28,423.53,548.32,424.68,549.72,424.68L549.72,424.68z"/>
		</g>
	</g>
</g>
</svg>
