<?xml version="1.0" encoding="utf-8"?>
<!-- Generator: Adobe Illustrator 23.0.5, SVG Export Plug-In . SVG Version: 6.00 Build 0)  -->
<svg version="1.1" id="Layer_1" xmlns="http://www.w3.org/2000/svg" xmlns:xlink="http://www.w3.org/1999/xlink" x="0px" y="0px"
	 viewBox="0 0 595.28 841.89" style="enable-background:new 0 0 595.28 841.89;" xml:space="preserve">
<style type="text/css">
	.st0{fill:#C3996C;}
	.st1{fill:#231F20;}
	.st2{fill:none;stroke:#231F20;stroke-miterlimit:10;}
	.st3{fill:#00AEEF;}
	.st4{fill:#603B17;}
</style>
<g>
	<g>
		<path class="st0" d="M385.94,339.68c-1.22,0.55,0.12,3.05-1.67,7.19c-1.48,3.43-4.21,5.46-6.9,8.11c-6.79,6.7-7.98,8.01-8.11,8.89
			c-0.02,0.16-0.01,0.29-0.01,0.34c0.06,6.23,10.44,10.43,10.49,10.46c0,0,7.69,5.36,15.5,10.57c5.69,3.8,9.52,6.24,14.8,10.57
			c2.84,2.33,5.4,4.64,7.05,8.46c0.58,1.35,1.75,4.15,1.41,7.75c-0.33,3.47-1.86,5.6-4.93,9.86c-1.93,2.68-4.68,6.41-7.51,6.19
			c-0.49-0.04-1.49-0.23-1.82-0.3c-5.56-1.08-7.34-2.89-9.52-3.25c-4.29-0.7-10.26,4.22-12.44,9.35
			c-4.28,10.07,6.39,20.21,7.54,21.3c2.28,2.17,7.46,7.06,13.23,6.91c1.75-0.05,3.26-0.75,6.3-2.16c3.11-1.44,6.59-3.06,8.46-6.34
			c1.6-2.83,0.14-3.68,1.32-6.71c1.55-3.96,5.03-5.07,14.13-10.52c5.11-3.06,7.66-4.59,8.43-5.36c8.97-9.06,3.87-27.25,3.61-28.14
			c-3.31-11.26-11.33-18.81-14.33-21.64c-2.83-2.67-5.65-4.69-10.72-9.96c-2.63-2.73-4.01-4.4-6.89-6.89
			c-3.73-3.23-6.59-4.91-8.43-6.13C393,350.35,388.53,338.5,385.94,339.68z"/>
	</g>
</g>
<g>
	<g>
		<path class="st0" d="M194.7,342.28c-8.95-3.85-21.97,9.64-27.01,14.86c-13.97,14.47-18.31,30.75-19.16,34.29
			c-1.76,7.33-1.86,16-2.07,33.33c-0.06,5.12-0.43,12.39-1.18,26.91c-0.4,7.79-0.64,10.59-2.3,14.29
			c-3.31,7.39-7.66,7.67-9.26,14.36c-0.22,0.92-1.83,8.07,2.21,12.85c1.77,2.1,4,2.91,8.4,4.44c5.1,1.78,8.04,2.81,11.86,2.67
			c8.54-0.32,18.63-5.72,19.71-12.72c0.35-2.29-0.25-4.78-1.09-8.2c-0.83-3.4-1.71-5.06-2.54-7.43c-1.39-3.94-1.85-6.61-2.05-13.26
			c-0.31-10.1-1.45-12.07-1.69-18.13c-0.42-10.51,2.34-31.72,15.52-49.92c8.82-12.17,15.54-11.96,18.18-22.35
			C204.76,358.46,202.01,345.41,194.7,342.28z"/>
	</g>
</g>
<g>
	<g>
		<path class="st1" d="M232.35,204.85c1.61,0.28,10.77-16.37,11.9-28.06c0.08-0.77,0.28-3.18,1.54-3.62
			c2.53-0.89,5.55,7.41,14.4,12.48c3.67,2.1,6.9,3.95,9.6,2.88c6.61-2.63,0.13-18.89,7.68-32.64c6.72-12.24,21.12-16.26,31.68-19.2
			c22.15-6.18,43.13,0.02,45.26,1.64c0.09,0.07,0.44,0.36,0.83,0.28c0,0,1.22-0.24,1.92-9.6c0,0,8.27-0.24,12.48-3.84
			c4.18-3.58,4.04-10.18,3.84-19.2c-0.15-6.81-0.22-10.21-1.92-12.48c-4.41-5.9-14.13-3.61-28.8-3.84
			c-18.41-0.29-19.56-4.15-34.56-4.8c-16.03-0.7-33.61,2.89-44.17,8.64C222.74,115.97,228.83,204.23,232.35,204.85z"/>
	</g>
</g>
<g>
	<g>
		<path class="st0" d="M235.13,200.8c8.7,12.14,12.87,17.96,12.87,17.96s5.43,6.72,9.04,11.82c4.45,6.27,8.22,12.37,10.43,20.97
			c0.9,3.49,1.85,8.77,1.53,15.45c-0.87,4.03-1.81,10.9,0,19c1.3,5.81,2.44,10.94,6.82,13.79c6.54,4.26,16.69,1.03,21.91-4.19
			c3.01-3.01,4.17-6.65,5.82-11.82c2.79-8.76,0.86-10.78,3.57-15.44c4.07-6.98,12.29-9.15,13.56-9.44c6.39-1.43,8.1,1.01,18.34,0.76
			c7.63-0.18,11.78-0.28,14.61-3.15c0.97-0.98,3.15-3.68,2.09-19.92c-0.85-12.92-2.79-19.69,0.44-21.74
			c1.81-1.15,3.82-1.31,8.89-2.54c1.05-0.25,1.96-0.73,2.59-1.66c2.48-3.7-3.06-8.59-5.22-17.83c-2.58-11.03,2.71-15.18,3.13-29.36
			c0.08-2.76-0.37-13.15-4.17-24.12c-0.86-2.48-4.17-11.53-4.17-11.53c0,0-21.25-6.2-40.69-3.15c-5.76,0.91-28.53,5.32-37.56,22.02
			c-1.25,2.31-2.92,7.48-6.26,17.83c-5,15.49-5.87,21.38-9.39,22.02c-2.31,0.42-6.09-3.21-13.56-10.49
			c-5.92-5.77-6.85-7.56-8.35-7.34C238.91,169.07,236,174.69,235.13,200.8z"/>
	</g>
</g>
<g>
	<g>
		<circle class="st1" cx="320.44" cy="174.08" r="5.91"/>
	</g>
	<g>
		<circle class="st2" cx="320.44" cy="174.08" r="5.91"/>
	</g>
</g>
<g>
	<g>
		<circle class="st1" cx="354.05" cy="174.08" r="5.91"/>
	</g>
	<g>
		<circle class="st2" cx="354.05" cy="174.08" r="5.91"/>
	</g>
</g>
<g>
	<g>
		<g>
			<path class="st1" d="M314.18,243.42c6.06,4.5,13.48,6.56,20.98,5.43c8.09-1.23,15.17-6.02,20.63-11.93
				c1.09-1.18-0.67-2.95-1.77-1.77c-5.12,5.55-11.62,10-19.19,11.24c-6.95,1.13-13.8-0.97-19.39-5.12
				C314.15,240.3,312.9,242.47,314.18,243.42L314.18,243.42z"/>
		</g>
	</g>
</g>
<path class="st3" d="M267.75,274.42c2.07,1.83,2.21,5.14,1.95,7.8c-0.3,1.29-1.55,7.17,1.95,11.7c2.27,2.94,5.45,3.88,8.77,4.87
	c4.06,1.21,7.84,2.46,11.7,0.97c4.47-1.72,6.54-6.06,8.77-10.72c1.09-2.28,1.79-4.22,2.26-5.86c1.45-4.98,1.51-6.63,1.97-7.12
	c2.15-2.29,24.61,13.59,91.26,70.15c-6.8,9.93-13.6,19.86-20.39,29.78c-15.61-13.71-31.22-27.43-46.84-41.14
	c-0.63,48.74-1.26,97.48-1.89,146.22c-30.24,0.65-60.48,1.3-90.72,1.95c0.32-49.39,0.65-98.78,0.97-148.17
	C225.02,348.9,212.51,362.95,200,377c-9.17-10.83-18.34-21.65-27.51-32.48c16.54-18.36,47-50.37,71.87-64.25
	C249.91,277.17,262.75,270,267.75,274.42z"/>
<path d="M236.33,481.03c30.66,0,61.33,0,91.99,0c11,79.68,21.99,159.37,32.99,239.05c-13.55,0.18-27.09,0.35-40.64,0.53
	c-11.61-67.73-23.22-135.47-34.84-203.2c-8.93,67.57-17.87,135.15-26.8,202.72c-13.02,0.26-26.04,0.51-39.06,0.77
	C225.42,640.93,230.88,560.98,236.33,481.03z"/>
<g>
	<g>
		<path class="st4" d="M225.59,713.23c2.14,0.01,2.23,1.35,6.81,3.51c2.39,1.12,6.72,3.17,11.66,2.36c3.27-0.54,5.61-2.12,7.7-3.54
			c0,0,1.4-1.03,5.51-4.99c0,0,4.05,2.48,6.19,3.92c6.25,4.21,5.18,5.79,9.55,8.03c3.3,1.69,3.33,0.77,10.27,3.49
			c4.86,1.91,6.51,3.03,7.81,4.12c1.83,1.55,4.03,3.4,4.46,6.2c0.68,4.41-3.37,8.86-7.28,10.7c-4.21,1.97-8.48,1.03-10.09,0.69
			c0,0-25.37-3.95-49.16-1.99c0,0,0,0,0,0c-1.54-0.17-5.97-0.87-9.65-4.5c-5.3-5.22-4.75-12.25-4.57-13.86
			C215.58,720.43,220.71,713.2,225.59,713.23z"/>
	</g>
</g>
<g>
	<g>
		<path class="st4" d="M325.33,713.23c2.14,0.01,2.23,1.35,6.81,3.51c2.39,1.12,6.72,3.17,11.66,2.36c3.27-0.54,5.61-2.12,7.7-3.54
			c0,0,1.4-1.03,5.51-4.99c0,0,4.05,2.48,6.19,3.92c6.25,4.21,5.18,5.79,9.55,8.03c3.3,1.69,3.33,0.77,10.27,3.49
			c4.86,1.91,6.51,3.03,7.81,4.12c1.83,1.55,4.03,3.4,4.46,6.2c0.68,4.41-3.37,8.86-7.28,10.7c-4.21,1.97-8.48,1.03-10.09,0.69
			c0,0-25.37-3.95-49.16-1.99c0,0,0,0,0,0c-1.54-0.17-5.97-0.87-9.65-4.5c-5.3-5.22-4.75-12.25-4.57-13.86
			C315.32,720.43,320.45,713.2,325.33,713.23z"/>
	</g>
</g>
</svg>
