<?xml version="1.0" encoding="utf-8"?>
<!-- Generator: Adobe Illustrator 23.0.5, SVG Export Plug-In . SVG Version: 6.00 Build 0)  -->
<svg version="1.1" xmlns="http://www.w3.org/2000/svg" xmlns:xlink="http://www.w3.org/1999/xlink" x="0px" y="0px"
	 viewBox="0 0 1000 1000" style="enable-background:new 0 0 1000 1000;" xml:space="preserve">
<style type="text/css">
	.st0{fill:#D42300;stroke:#231F20;stroke-width:3;stroke-miterlimit:10;}
	.st1{fill:#A7A9AC;}
	.st2{font-family:'CooperBlack';}
	.st3{font-size:70px;}
	.st4{fill:#BCBEC0;}
	.st5{font-size:130px;}
	.st6{fill:none;stroke:#A7A9AC;stroke-width:15;stroke-miterlimit:10;}
	.st7{fill:#A7A9AC;stroke:#A7A9AC;stroke-width:15;stroke-miterlimit:10;}
	.st8{fill:url(#SVGID_1_);}
	.st9{fill:#FFFFFF;stroke:#231F20;stroke-miterlimit:10;}
	.st10{fill:none;stroke:#231F20;stroke-width:15;stroke-miterlimit:10;}
</style>
<g id="Layer_1">
	<circle class="st0" cx="500" cy="500" r="475.94"/>
	<text transform="matrix(1 0 0 1 218.2055 864.488)" class="st1 st2 st3">Gaming Studios</text>
	<g>
		<text transform="matrix(1 0 0 1 177.0089 796.356)" class="st4 st2 st5">SilverDog</text>
		<text transform="matrix(1 0 0 1 177.0089 796.356)" class="st1 st2 st5">SilverDog</text>
	</g>
	<path class="st6" d="M647.36,281.51c-27.64-8.63-60.05-6.26-69.45,6.13c-1.75,2.31-2.09,6.76,0,13.28"/>
	<circle class="st7" cx="414.63" cy="305.82" r="4.9"/>
	<circle class="st7" cx="611.91" cy="305.82" r="4.9"/>
</g>
<g id="Layer_2">
	<radialGradient id="SVGID_1_" cx="725.3405" cy="525.1702" r="0" gradientUnits="userSpaceOnUse">
		<stop  offset="0.0664" style="stop-color:#020202"/>
		<stop  offset="0.5286" style="stop-color:#040303"/>
		<stop  offset="0.6951" style="stop-color:#0B0606"/>
		<stop  offset="0.8137" style="stop-color:#160C0C"/>
		<stop  offset="0.909" style="stop-color:#271314"/>
		<stop  offset="0.9903" style="stop-color:#3D1E1E"/>
		<stop  offset="1" style="stop-color:#401F20"/>
	</radialGradient>
	<path class="st8" d="M725.34,525.17"/>
	<path class="st9" d="M847.85,93.81"/>
	<path class="st6" d="M211.6,303.17c-0.37-38.46-5.79-59.85-11.23-72.51c-0.53-1.24-2.52-5.79-4.09-12.26
		c-1.23-5.09-7.39-30.62,4.09-42.89c6.77-7.24,12.36-2.03,27.57-8.17c19.95-8.05,21.12-21.36,39.83-31.66
		c1.13-0.62,17.69-9.48,37.79-8.17c39.05,2.55,47.29,40.62,82.72,40.85c6.09,0.04,18.55-1,35.74,3.06
		c7.17,1.69,12.34,3.61,16.34,5.11c53.72,20.1,52.72,20.88,58.21,21.45c20.94,2.15,20.61-10.76,58.21-19.4
		c30.35-6.97,33.57,0.75,56.17-7.15c24.35-8.51,22.81-18.24,51.06-30.64c19.27-8.46,39.25-17.23,59.23-10.21
		c12.4,4.35,29.45,16.41,39.83,25.53c3.44,3.03,6.59,6.11,12.26,9.19c11.38,6.19,17.21,3.83,25.53,9.19
		c8.92,5.75,12.39,15,13.28,17.36c3.33,8.88,1.12,14.41-3.06,35.74c-6.45,32.89-9.67,49.33-9.19,58.21
		c0.16,2.92,0.61,8.72-2.04,15.32c-2.44,6.08-7.97,13.98-15.32,16.34c-15.55,5-33.69-16.57-37.79-21.45
		c-21.06-25.03-21.45-56.86-21.45-60.26c0.02-18.81,5.74-25.37,1.02-31.66c-5.35-7.13-21.16-9.95-64.34,5.11"/>
	<path class="st6" d="M351.51,212.28c-4.52-1.4-64.01-19.51-69.45-8.17c-1.21,2.51-0.86,8.79,0,13.28
		c1.17,6.07,3.55,10.23,4.09,11.23c6.23,11.79,3.63,55.46-25.53,78.64c-5.95,4.73-22.33,17.75-35.74,11.23
		c-10.68-5.19-12.99-19.61-13.41-22.59"/>
	<path class="st6" d="M306.57,281.72c-19.89,31.87-19.56,51.86-15.32,64.34c2.51,7.4,5.63,9.93,8.17,19.4
		c5.69,21.27-1.56,40.28-5.11,50.04c-10.06,27.68-19.8,61.96-23.49,82.72c-9.42,52.98,6.98,94.02,14.3,112.34
		c12.64,31.64,25.44,41.35,34.72,45.96c3.43,1.7,19.17,9.52,34.72,4.09c16.32-5.7,21.44-22.13,32.68-44.94
		c12.61-25.6,33.82-68.64,68.43-89.87c1.72-1.05,27.08-16.24,55.15-15.32c59.89,1.97,96.37,71.56,104.22,86.25
		c8.29,15.5,12.43,23.25,14.15,33.66c1.39,8.38,0.86,14.3,5.2,20.01c5.7,7.49,15.81,9.4,23.35,9.87"/>
	<path class="st6" d="M700.83,284.64c12.88,16.84,25.97,39.92,19.4,61.28c-3.74,12.15-11.12,14.91-15.32,27.57
		c-7.18,21.67,5.63,40.24,16.34,65.36c5.71,13.38,24.94,58.48,20.43,107.23c-2.29,24.76-11.4,44.08-29.62,82.72
		c-8.44,17.91-14.12,26.86-24.51,31.66c-20.77,9.6-45.03-4.46-51.06-8.17"/>
	<path class="st10" d="M633.38,655.51"/>
	<path class="st6" d="M413.24,567.68c7.12,11.46,21.04,30.14,44.94,43.91c9.47,5.46,22.47,12.76,40.85,14.3
		c30.86,2.58,53.72-13.05,61.28-18.38c21.83-15.4,31.78-35.44,35.74-44.94"/>
	<ellipse class="st7" cx="505.21" cy="455.34" rx="63.83" ry="26.55"/>
	<path class="st6" d="M379.09,281.72c35.64-9.4,63.41-6.58,69.45,6.13c1.25,2.62,2.09,6.76,0,13.28"/>
</g>
</svg>
